<?xml version="1.0" encoding="utf-8"?>
<!-- Generator: Adobe Illustrator 23.0.0, SVG Export Plug-In . SVG Version: 6.00 Build 0)  -->
<svg version="1.1" id="레이어_1" xmlns="http://www.w3.org/2000/svg" xmlns:xlink="http://www.w3.org/1999/xlink" x="0px"
	 y="0px" viewBox="0 0 150 150" style="enable-background:new 0 0 150 150;" xml:space="preserve">
<g>
	<path d="M93.4,75l33.1-33.1c1.9-1.9,1.9-4.9,0-6.7l-11.7-11.7c-1.9-1.9-4.9-1.9-6.7,0L75,56.6L41.9,23.6c-1.9-1.9-4.9-1.9-6.7,0
		L23.6,35.2c-1.9,1.9-1.9,4.9,0,6.7L56.6,75l-33.1,33.1c-1.9,1.9-1.9,4.9,0,6.7l11.7,11.7c1.9,1.9,4.9,1.9,6.7,0L75,93.4l33.1,33.1
		c1.9,1.9,4.9,1.9,6.7,0l11.7-11.7c1.9-1.9,1.9-4.9,0-6.7L93.4,75z"/>
</g>
</svg>
