<?xml version="1.0" encoding="utf-8"?>
<!-- Generator: Adobe Illustrator 23.0.0, SVG Export Plug-In . SVG Version: 6.00 Build 0)  -->
<svg version="1.1" id="레이어_1" xmlns="http://www.w3.org/2000/svg" xmlns:xlink="http://www.w3.org/1999/xlink" x="0px"
	 y="0px" viewBox="0 0 150 150" style="enable-background:new 0 0 150 150;" xml:space="preserve">
<g>
	<path d="M135.9,81.4l-12-12c-1.6-1.6-4.1-1.6-5.6,0L93.1,94.6c-1.5,1.5-4,0.4-4-1.7V8.5c0-2.6-2.1-4.7-4.7-4.7H66.7
		c-2.6,0-4.7,2.1-4.7,4.7v85.5c0,2.1-2.5,3.1-4,1.7L31.8,69.4c-1.6-1.6-4.1-1.6-5.6,0l-12,12c-1.6,1.6-1.6,4.1,0,5.6l58,58
		c0.8,0.8,1.8,1.2,2.8,1.2c1,0,2-0.4,2.8-1.2l58-58C137.4,85.5,137.4,83,135.9,81.4z"/>
</g>
</svg>
