<?xml version="1.0" encoding="utf-8"?>
<!-- Generator: Adobe Illustrator 16.0.0, SVG Export Plug-In . SVG Version: 6.00 Build 0)  -->
<!DOCTYPE svg PUBLIC "-//W3C//DTD SVG 1.1//EN" "http://www.w3.org/Graphics/SVG/1.1/DTD/svg11.dtd">
<svg version="1.1" id="Layer_1" xmlns="http://www.w3.org/2000/svg" xmlns:xlink="http://www.w3.org/1999/xlink" x="0px" y="0px"
	 width="40px" height="40px" viewBox="0 0 40 40" enable-background="new 0 0 40 40" xml:space="preserve">
<g>
	<path d="M34.969,20.563c1.888-1.458,3.3-3.773,2.719-7.438c0,0-4.149,1.25-6.917,4.387c-2.28-2.962-8.825-5.295-12.142-5.761
		c-0.258-2.041,1.438-3.376-0.154-3.376c-1.669,0-4.884,0.854-6.02,3.356c-5.689,0.476-9.856,2.447-11.143,7.019
		c-1.337,4.752,3.875,9.094,12.673,10.392c1.584,1.959,4.776,2.649,6.517,2.649c2.137,0-0.838-1.789,0.52-4.396
		c3.8-1.586,6.56-3.599,9.643-3.915c4.23-0.434,7.022,4.52,7.022,4.52C38.269,24.336,36.856,22.021,34.969,20.563z M8.104,20.792
		c-0.817,0-1.479-0.662-1.479-1.479c0-0.817,0.662-1.479,1.479-1.479c0.817,0,1.479,0.662,1.479,1.479
		C9.583,20.13,8.921,20.792,8.104,20.792z"/>
</g>
</svg>
